<?xml version="1.0" encoding="UTF-8" standalone="no"?>
<!DOCTYPE svg PUBLIC "-//W3C//DTD SVG 1.1//EN"
 "http://www.w3.org/Graphics/SVG/1.1/DTD/svg11.dtd">
<!-- Generated by graphviz version 7.1.0 (0)
 -->
<!-- Pages: 1 -->
<svg width="1345pt" height="713pt"
 viewBox="0.00 0.00 1344.50 713.00" xmlns="http://www.w3.org/2000/svg" xmlns:xlink="http://www.w3.org/1999/xlink">
<g id="graph0" class="graph" transform="scale(1 1) rotate(0) translate(4 709)">
<polygon fill="white" stroke="none" points="-4,4 -4,-709 1340.5,-709 1340.5,4 -4,4"/>
<!-- tb -->
<g id="node1" class="node">
<title>tb</title>
<path fill="lightgrey" stroke="black" d="M529,-621C529,-621 454,-621 454,-621 448,-621 442,-615 442,-609 442,-609 442,-588 442,-588 442,-582 448,-576 454,-576 454,-576 529,-576 529,-576 535,-576 541,-582 541,-588 541,-588 541,-609 541,-609 541,-615 535,-621 529,-621"/>
<text text-anchor="start" x="459.5" y="-606.8" font-family="sans-serif" font-size="14.00">Tinyboard</text>
<text text-anchor="start" x="450" y="-596.8" font-family="sans-serif" font-weight="bold" font-size="9.00">(@savetheinternet)</text>
<text text-anchor="start" x="454" y="-583.8" font-family="sans-serif" font-size="14.00">2010–2014</text>
</g>
<!-- ponychan -->
<g id="node2" class="node">
<title>ponychan</title>
<path fill="lightgrey" stroke="black" d="M165,-540C165,-540 12,-540 12,-540 6,-540 0,-534 0,-528 0,-528 0,-493 0,-493 0,-487 6,-481 12,-481 12,-481 165,-481 165,-481 171,-481 177,-487 177,-493 177,-493 177,-528 177,-528 177,-534 171,-540 165,-540"/>
<text text-anchor="start" x="45.5" y="-525.8" font-family="sans-serif" font-size="14.00">ponychan.net</text>
<text text-anchor="start" x="78.5" y="-515.8" font-family="sans-serif" font-weight="bold" font-size="9.00">(???)</text>
<text text-anchor="start" x="8" y="-502.8" font-family="sans-serif" font-size="14.00">2012–2015 (as MLPchan)</text>
<text text-anchor="start" x="67.5" y="-488.8" font-family="sans-serif" font-size="14.00">2015–</text>
</g>
<!-- tb&#45;&gt;ponychan -->
<g id="edge1" class="edge">
<title>tb&#45;&gt;ponychan</title>
<path fill="none" stroke="black" d="M441.53,-589.6C383.11,-580.04 283.34,-562.65 188.3,-540.34"/>
<polygon fill="black" stroke="black" points="189.35,-536.99 178.81,-538.09 187.73,-543.8 189.35,-536.99"/>
</g>
<!-- fourchon -->
<g id="node3" class="node">
<title>fourchon</title>
<path fill="lightgrey" stroke="black" d="M365.5,-533C365.5,-533 207.5,-533 207.5,-533 201.5,-533 195.5,-527 195.5,-521 195.5,-521 195.5,-500 195.5,-500 195.5,-494 201.5,-488 207.5,-488 207.5,-488 365.5,-488 365.5,-488 371.5,-488 377.5,-494 377.5,-500 377.5,-500 377.5,-521 377.5,-521 377.5,-527 371.5,-533 365.5,-533"/>
<text text-anchor="start" x="203.5" y="-518.8" font-family="sans-serif" font-size="14.00">proprietary 4chon.net fork</text>
<text text-anchor="start" x="245" y="-508.8" font-family="sans-serif" font-weight="bold" font-size="9.00">(@savetheinternet)</text>
<text text-anchor="start" x="249" y="-495.8" font-family="sans-serif" font-size="14.00">2010–2014</text>
</g>
<!-- tb&#45;&gt;fourchon -->
<g id="edge2" class="edge">
<title>tb&#45;&gt;fourchon</title>
<path fill="none" stroke="black" d="M441.6,-578.95C411.74,-566.92 373.78,-551.08 342.86,-537.77"/>
<polygon fill="black" stroke="black" points="344.62,-534.72 334.05,-533.97 341.84,-541.15 344.62,-534.72"/>
</g>
<!-- vichan -->
<g id="node4" class="node">
<title>vichan</title>
<path fill="gold" stroke="gold" d="M821.5,-533C821.5,-533 787.5,-533 787.5,-533 781.5,-533 775.5,-527 775.5,-521 775.5,-521 775.5,-500 775.5,-500 775.5,-494 781.5,-488 787.5,-488 787.5,-488 821.5,-488 821.5,-488 827.5,-488 833.5,-494 833.5,-500 833.5,-500 833.5,-521 833.5,-521 833.5,-527 827.5,-533 821.5,-533"/>
<text text-anchor="start" x="783.5" y="-518.8" font-family="sans-serif" font-size="14.00">vichan</text>
<text text-anchor="start" x="785" y="-508.8" font-family="sans-serif" font-weight="bold" font-size="9.00">(@czaks)</text>
<text text-anchor="start" x="783.5" y="-495.8" font-family="sans-serif" font-size="14.00">2012–</text>
</g>
<!-- tb&#45;&gt;vichan -->
<g id="edge3" class="edge">
<title>tb&#45;&gt;vichan</title>
<path fill="none" stroke="black" d="M541.28,-580.82C603.07,-562.72 706.49,-534.52 763.84,-520.31"/>
<polygon fill="black" stroke="black" points="764.65,-523.72 773.54,-517.94 762.99,-516.92 764.65,-523.72"/>
</g>
<!-- tb&#45;&gt;vichan -->
<g id="edge27" class="edge">
<title>tb&#45;&gt;vichan</title>
<path fill="none" stroke="black" stroke-width="0" d="M541.18,-586.43C607.29,-569.78 721.09,-538.5 775.1,-522.12"/>
</g>
<!-- vichannet -->
<g id="node5" class="node">
<title>vichannet</title>
<path fill="lightgrey" stroke="black" d="M585.5,-445C585.5,-445 397.5,-445 397.5,-445 391.5,-445 385.5,-439 385.5,-433 385.5,-433 385.5,-403 385.5,-403 385.5,-397 391.5,-391 397.5,-391 397.5,-391 585.5,-391 585.5,-391 591.5,-391 597.5,-397 597.5,-403 597.5,-403 597.5,-433 597.5,-433 597.5,-439 591.5,-445 585.5,-445"/>
<text text-anchor="start" x="393.5" y="-430.8" font-family="sans-serif" font-size="14.00">Production vichan.net software</text>
<text text-anchor="start" x="426.5" y="-420.8" font-family="sans-serif" font-weight="bold" font-size="9.00">(Polish&#45;language imageboard)</text>
<text text-anchor="start" x="472" y="-411.8" font-family="sans-serif" font-weight="bold" font-size="9.00">(@czaks)</text>
<text text-anchor="start" x="470.5" y="-398.8" font-family="sans-serif" font-size="14.00">2012–</text>
</g>
<!-- tb&#45;&gt;vichannet -->
<g id="edge4" class="edge">
<title>tb&#45;&gt;vichannet</title>
<path fill="none" stroke="black" d="M491.5,-575.61C491.5,-545.96 491.5,-492.59 491.5,-456.48"/>
<polygon fill="black" stroke="black" points="495,-456.94 491.5,-446.94 488,-456.94 495,-456.94"/>
</g>
<!-- fourchon&#45;&gt;tb -->
<g id="edge5" class="edge">
<title>fourchon&#45;&gt;tb</title>
<path fill="none" stroke="black" d="M344.63,-533.38C372.89,-544.85 406.68,-558.98 434.75,-571.06"/>
<polygon fill="black" stroke="black" points="433.25,-574.22 443.82,-574.98 436.03,-567.8 433.25,-574.22"/>
</g>
<!-- vichan&#45;&gt;tb -->
<g id="edge6" class="edge">
<title>vichan&#45;&gt;tb</title>
<path fill="none" stroke="black" d="M775.41,-519.49C724.77,-533.41 619.44,-562.35 552.29,-580.8"/>
<polygon fill="black" stroke="black" points="551.62,-577.35 542.9,-583.38 553.47,-584.1 551.62,-577.35"/>
</g>
<!-- vichan&#45;&gt;vichannet -->
<g id="edge7" class="edge">
<title>vichan&#45;&gt;vichannet</title>
<path fill="none" stroke="black" d="M775.05,-500.99C733.91,-489.09 657.15,-466.9 593.87,-448.6"/>
<polygon fill="black" stroke="black" points="595.06,-445.3 584.48,-445.88 593.12,-452.02 595.06,-445.3"/>
</g>
<!-- leftypol -->
<g id="node6" class="node">
<title>leftypol</title>
<path fill="lightgrey" stroke="black" d="M755.5,-443C755.5,-443 627.5,-443 627.5,-443 621.5,-443 615.5,-437 615.5,-431 615.5,-431 615.5,-405 615.5,-405 615.5,-399 621.5,-393 627.5,-393 627.5,-393 755.5,-393 755.5,-393 761.5,-393 767.5,-399 767.5,-405 767.5,-405 767.5,-431 767.5,-431 767.5,-437 761.5,-443 755.5,-443"/>
<text text-anchor="start" x="656" y="-428.8" font-family="sans-serif" font-size="14.00">leftypol.org</text>
<text text-anchor="start" x="623.5" y="-414.8" font-family="sans-serif" font-weight="bold" font-size="14.00">(@discomrade </text>
<text text-anchor="start" x="720.5" y="-414.8" font-family="sans-serif" font-weight="bold" font-style="italic" font-size="14.00">et al.</text>
<text text-anchor="start" x="754.5" y="-414.8" font-family="sans-serif" font-weight="bold" font-size="14.00">)</text>
<text text-anchor="start" x="666.5" y="-400.8" font-family="sans-serif" font-size="14.00">≈2016–</text>
</g>
<!-- vichan&#45;&gt;leftypol -->
<g id="edge8" class="edge">
<title>vichan&#45;&gt;leftypol</title>
<path fill="none" stroke="black" d="M775.2,-490.53C759.65,-478.98 740.59,-463.94 724.53,-450.64"/>
<polygon fill="black" stroke="black" points="727.04,-448.17 717.13,-444.43 722.54,-453.54 727.04,-448.17"/>
</g>
<!-- inf -->
<g id="node7" class="node">
<title>inf</title>
<path fill="lightgrey" stroke="black" d="M838,-355C838,-355 771,-355 771,-355 765,-355 759,-349 759,-343 759,-343 759,-313 759,-313 759,-307 765,-301 771,-301 771,-301 838,-301 838,-301 844,-301 850,-307 850,-313 850,-313 850,-343 850,-343 850,-349 844,-355 838,-355"/>
<text text-anchor="start" x="782" y="-340.8" font-family="sans-serif" font-size="14.00">infinity</text>
<text text-anchor="start" x="773.5" y="-330.8" font-family="sans-serif" font-weight="bold" font-size="9.00">(@copypaste /</text>
<text text-anchor="start" x="785" y="-321.8" font-family="sans-serif" font-weight="bold" font-size="9.00">★コピペ)</text>
<text text-anchor="start" x="767" y="-308.8" font-family="sans-serif" font-size="14.00">2013–2017</text>
</g>
<!-- vichan&#45;&gt;inf -->
<g id="edge9" class="edge">
<title>vichan&#45;&gt;inf</title>
<path fill="none" stroke="black" d="M799.92,-487.73C797.42,-457.69 797.08,-403.11 798.9,-366.45"/>
<polygon fill="black" stroke="black" points="802.38,-366.93 799.48,-356.74 795.39,-366.52 802.38,-366.93"/>
</g>
<!-- infco -->
<g id="node8" class="node">
<title>infco</title>
<path fill="lightgrey" stroke="black" d="M1003,-445C1003,-445 854,-445 854,-445 848,-445 842,-439 842,-433 842,-433 842,-403 842,-403 842,-397 848,-391 854,-391 854,-391 1003,-391 1003,-391 1009,-391 1015,-397 1015,-403 1015,-403 1015,-433 1015,-433 1015,-439 1009,-445 1003,-445"/>
<text text-anchor="start" x="850" y="-430.8" font-family="sans-serif" font-size="14.00">Production 8chan.co fork</text>
<text text-anchor="start" x="897.5" y="-420.8" font-family="sans-serif" font-weight="bold" font-size="9.00">(@copypaste /</text>
<text text-anchor="start" x="909" y="-411.8" font-family="sans-serif" font-weight="bold" font-size="9.00">★コピペ)</text>
<text text-anchor="start" x="891" y="-398.8" font-family="sans-serif" font-size="14.00">2013–2016</text>
</g>
<!-- vichan&#45;&gt;infco -->
<g id="edge10" class="edge">
<title>vichan&#45;&gt;infco</title>
<path fill="none" stroke="black" d="M822.76,-487.59C835.87,-476.72 853.74,-463.38 871.16,-451.36"/>
<polygon fill="black" stroke="black" points="872.65,-454.58 878.95,-446.06 868.72,-448.79 872.65,-454.58"/>
</g>
<!-- vichan&#45;&gt;infco -->
<g id="edge28" class="edge">
<title>vichan&#45;&gt;infco</title>
<path fill="none" stroke="black" stroke-width="0" d="M834,-495.36C855.79,-482.04 884.36,-461.74 904.7,-445.42"/>
</g>
<!-- lc -->
<g id="node9" class="node">
<title>lc</title>
<path fill="lightgrey" stroke="black" d="M1187,-437C1187,-437 1140,-437 1140,-437 1134,-437 1128,-431 1128,-425 1128,-425 1128,-411 1128,-411 1128,-405 1134,-399 1140,-399 1140,-399 1187,-399 1187,-399 1193,-399 1199,-405 1199,-411 1199,-411 1199,-425 1199,-425 1199,-431 1193,-437 1187,-437"/>
<text text-anchor="start" x="1136" y="-421.8" font-family="sans-serif" font-size="14.00">lainchan</text>
<text text-anchor="start" x="1142.5" y="-406.8" font-family="sans-serif" font-size="14.00">2016–</text>
</g>
<!-- vichan&#45;&gt;lc -->
<g id="edge11" class="edge">
<title>vichan&#45;&gt;lc</title>
<path fill="none" stroke="black" d="M833.76,-506.11C889.49,-499.05 1014.14,-480.44 1113.5,-445 1115.99,-444.11 1118.51,-443.12 1121.02,-442.06"/>
<polygon fill="black" stroke="black" points="1122.24,-445.35 1129.89,-438.02 1119.34,-438.99 1122.24,-445.35"/>
</g>
<!-- npf -->
<g id="node10" class="node">
<title>npf</title>
<path fill="lightgrey" stroke="black" d="M1296,-437C1296,-437 1229,-437 1229,-437 1223,-437 1217,-431 1217,-425 1217,-425 1217,-411 1217,-411 1217,-405 1223,-399 1229,-399 1229,-399 1296,-399 1296,-399 1302,-399 1308,-405 1308,-411 1308,-411 1308,-425 1308,-425 1308,-431 1302,-437 1296,-437"/>
<text text-anchor="start" x="1234" y="-421.8" font-family="sans-serif" font-size="14.00">NPFchan</text>
<text text-anchor="start" x="1225" y="-406.8" font-family="sans-serif" font-size="14.00">2017–2019</text>
</g>
<!-- vichan&#45;&gt;npf -->
<g id="edge12" class="edge">
<title>vichan&#45;&gt;npf</title>
<path fill="none" stroke="black" d="M833.82,-507.74C901.33,-503.06 1072.43,-487.62 1208.5,-445 1211.42,-444.08 1214.39,-443.03 1217.35,-441.89"/>
<polygon fill="black" stroke="black" points="1218.69,-445.13 1226.56,-438.03 1215.98,-438.67 1218.69,-445.13"/>
</g>
<!-- kuz -->
<g id="node11" class="node">
<title>kuz</title>
<path fill="lightgrey" stroke="black" d="M1191,-354.5C1191,-354.5 1084,-354.5 1084,-354.5 1078,-354.5 1072,-348.5 1072,-342.5 1072,-342.5 1072,-313.5 1072,-313.5 1072,-307.5 1078,-301.5 1084,-301.5 1084,-301.5 1191,-301.5 1191,-301.5 1197,-301.5 1203,-307.5 1203,-313.5 1203,-313.5 1203,-342.5 1203,-342.5 1203,-348.5 1197,-354.5 1191,-354.5"/>
<text text-anchor="start" x="1101" y="-339.3" font-family="sans-serif" font-size="14.00">KolymaNET</text>
<text text-anchor="start" x="1080" y="-324.3" font-family="sans-serif" font-size="14.00">d/b/a soyjak.party</text>
<text text-anchor="start" x="1112.5" y="-309.3" font-family="sans-serif" font-size="14.00">~2020–</text>
</g>
<!-- vichan&#45;&gt;kuz -->
<g id="edge13" class="edge">
<title>vichan&#45;&gt;kuz</title>
<path fill="none" stroke="black" d="M833.77,-508.21C882.58,-504.72 981.17,-491.89 1048.5,-445 1077.39,-424.88 1099.08,-390.73 1114.13,-364.68"/>
<polygon fill="black" stroke="black" points="1117.11,-366.52 1119.03,-356.1 1111.03,-363.05 1117.11,-366.52"/>
</g>
<!-- vichannet&#45;&gt;vichan -->
<g id="edge14" class="edge">
<title>vichannet&#45;&gt;vichan:nw</title>
<path fill="none" stroke="black" d="M531.54,-445.38C595.84,-486.25 719.57,-558.43 765.92,-540.59"/>
<polygon fill="black" stroke="black" points="767.66,-543.63 774.22,-535.31 763.91,-537.72 767.66,-543.63"/>
</g>
<!-- leftypol&#45;&gt;vichan -->
<g id="edge15" class="edge">
<title>leftypol&#45;&gt;vichan</title>
<path fill="none" stroke="black" stroke-dasharray="5,2" d="M727.84,-443.25C742.92,-454.68 760.16,-468.4 774.51,-480.39"/>
<polygon fill="black" stroke="black" points="771.97,-482.83 781.87,-486.62 776.49,-477.49 771.97,-482.83"/>
</g>
<!-- inf&#45;&gt;tb -->
<g id="edge16" class="edge">
<title>inf&#45;&gt;tb</title>
<path fill="none" stroke="black" stroke-dasharray="1,5" d="M758.7,-328.45C658.64,-328.34 425.58,-334.3 376.5,-391 360.79,-409.15 368.88,-422.24 376.5,-445 392.79,-493.65 431.4,-539.2 459.39,-567.63"/>
<polygon fill="black" stroke="black" points="456.71,-569.89 466.27,-574.46 461.65,-564.93 456.71,-569.89"/>
</g>
<!-- inf&#45;&gt;vichan -->
<g id="edge17" class="edge">
<title>inf&#45;&gt;vichan</title>
<path fill="none" stroke="black" d="M809.43,-355.23C811.7,-387.23 811.85,-441.37 809.87,-476.26"/>
<polygon fill="black" stroke="black" points="806.38,-476 809.19,-486.22 813.36,-476.48 806.38,-476"/>
</g>
<!-- infpl -->
<g id="node12" class="node">
<title>infpl</title>
<path fill="lightgrey" stroke="black" d="M943,-265C943,-265 812,-265 812,-265 806,-265 800,-259 800,-253 800,-253 800,-232 800,-232 800,-226 806,-220 812,-220 812,-220 943,-220 943,-220 949,-220 955,-226 955,-232 955,-232 955,-253 955,-253 955,-259 949,-265 943,-265"/>
<text text-anchor="start" x="808" y="-250.8" font-family="sans-serif" font-size="14.00">Production 8ch.pl fork</text>
<text text-anchor="start" x="858" y="-240.8" font-family="sans-serif" font-weight="bold" font-size="9.00">(@czaks)</text>
<text text-anchor="start" x="840" y="-227.8" font-family="sans-serif" font-size="14.00">2014–2016</text>
</g>
<!-- inf&#45;&gt;infpl -->
<g id="edge18" class="edge">
<title>inf&#45;&gt;infpl</title>
<path fill="none" stroke="black" d="M821.27,-300.58C828.31,-291.96 836.67,-282.33 844.79,-273.47"/>
<polygon fill="black" stroke="black" points="847.15,-276.08 851.42,-266.38 842.03,-271.3 847.15,-276.08"/>
</g>
<!-- oib -->
<g id="node13" class="node">
<title>oib</title>
<path fill="lightgrey" stroke="black" d="M770,-261.5C770,-261.5 695,-261.5 695,-261.5 689,-261.5 683,-255.5 683,-249.5 683,-249.5 683,-235.5 683,-235.5 683,-229.5 689,-223.5 695,-223.5 695,-223.5 770,-223.5 770,-223.5 776,-223.5 782,-229.5 782,-235.5 782,-235.5 782,-249.5 782,-249.5 782,-255.5 776,-261.5 770,-261.5"/>
<text text-anchor="start" x="708" y="-246.3" font-family="sans-serif" font-size="14.00">OpenIB</text>
<text text-anchor="start" x="691" y="-231.3" font-family="sans-serif" font-size="14.00">~2017–2019</text>
</g>
<!-- inf&#45;&gt;oib -->
<g id="edge19" class="edge">
<title>inf&#45;&gt;oib</title>
<path fill="none" stroke="black" d="M781.72,-300.58C773.39,-290.92 763.97,-279.99 755.61,-270.3"/>
<polygon fill="black" stroke="black" points="758.47,-268.26 749.29,-262.97 753.17,-272.83 758.47,-268.26"/>
</g>
<!-- infco&#45;&gt;vichan -->
<g id="edge20" class="edge">
<title>infco&#45;&gt;vichan</title>
<path fill="none" stroke="black" d="M892.23,-445.47C876.71,-456.8 858.58,-470.03 842.84,-481.52"/>
<polygon fill="black" stroke="black" points="841.12,-478.44 835.11,-487.16 845.25,-484.09 841.12,-478.44"/>
</g>
<!-- infco&#45;&gt;inf -->
<g id="edge21" class="edge">
<title>infco&#45;&gt;inf</title>
<path fill="none" stroke="black" d="M891.3,-390.6C878.54,-381.55 864.12,-371.31 850.74,-361.81"/>
<polygon fill="black" stroke="black" points="853.09,-359.19 842.91,-356.26 849.04,-364.9 853.09,-359.19"/>
</g>
<!-- infco&#45;&gt;kuz -->
<g id="edge29" class="edge">
<title>infco&#45;&gt;kuz</title>
<path fill="none" stroke="black" stroke-width="0" d="M991.21,-390.6C1018.02,-379.31 1049.23,-366.17 1075.92,-354.93"/>
</g>
<!-- kuz&#45;&gt;vichan -->
<g id="edge26" class="edge">
<title>kuz&#45;&gt;vichan</title>
<path fill="none" stroke="black" d="M1133.13,-354.78C1122.71,-381.41 1099.22,-422.21 1066.5,-445 999.1,-491.94 900.36,-504.75 845.22,-508.22"/>
<polygon fill="black" stroke="black" points="845.12,-504.72 835.33,-508.76 845.5,-511.71 845.12,-504.72"/>
</g>
<!-- SIG -->
<g id="node17" class="node">
<title>SIG</title>
<text text-anchor="start" x="1253.5" y="-2.8" font-family="serif" font-size="14.00">by kopipe</text>
</g>
<!-- kuz&#45;&gt;SIG -->
<g id="edge30" class="edge">
<title>kuz&#45;&gt;SIG</title>
<path fill="none" stroke="black" stroke-width="0" d="M1150.08,-301.01C1179.82,-239.51 1253.86,-86.47 1278.43,-35.68"/>
</g>
<!-- infpl&#45;&gt;vichan -->
<g id="edge22" class="edge">
<title>infpl&#45;&gt;vichan</title>
<path fill="none" stroke="black" stroke-dasharray="1,5" d="M914.36,-265.4C972.23,-302.54 1073.04,-380.19 1024.5,-445 1002.96,-473.76 902.36,-494.04 844.94,-503.49"/>
<polygon fill="black" stroke="black" points="844.54,-500.01 835.22,-505.05 845.65,-506.92 844.54,-500.01"/>
</g>
<!-- infpl&#45;&gt;inf -->
<g id="edge23" class="edge">
<title>infpl&#45;&gt;inf</title>
<path fill="none" stroke="black" d="M864.47,-265.28C857.91,-273.54 849.7,-283.18 841.46,-292.35"/>
<polygon fill="black" stroke="black" points="839.12,-289.72 834.95,-299.46 844.28,-294.45 839.12,-289.72"/>
</g>
<!-- e8ch -->
<g id="node14" class="node">
<title>e8ch</title>
<path fill="lightgrey" stroke="black" d="M814,-184C814,-184 651,-184 651,-184 645,-184 639,-178 639,-172 639,-172 639,-158 639,-158 639,-152 645,-146 651,-146 651,-146 814,-146 814,-146 820,-146 826,-152 826,-158 826,-158 826,-172 826,-172 826,-178 820,-184 814,-184"/>
<text text-anchor="start" x="647" y="-168.8" font-family="sans-serif" font-size="14.00">Proprietary 8chan software</text>
<text text-anchor="start" x="691" y="-153.8" font-family="sans-serif" font-size="14.00">~2017–2019</text>
</g>
<!-- oib&#45;&gt;e8ch -->
<g id="edge24" class="edge">
<title>oib&#45;&gt;e8ch</title>
<path fill="none" stroke="black" d="M732.5,-223.22C732.5,-214.94 732.5,-204.93 732.5,-195.62"/>
<polygon fill="black" stroke="black" points="736,-195.88 732.5,-185.88 729,-195.88 736,-195.88"/>
</g>
<!-- e8kun -->
<g id="node15" class="node">
<title>e8kun</title>
<path fill="lightgrey" stroke="black" d="M810.5,-110C810.5,-110 654.5,-110 654.5,-110 648.5,-110 642.5,-104 642.5,-98 642.5,-98 642.5,-84 642.5,-84 642.5,-78 648.5,-72 654.5,-72 654.5,-72 810.5,-72 810.5,-72 816.5,-72 822.5,-78 822.5,-84 822.5,-84 822.5,-98 822.5,-98 822.5,-104 816.5,-110 810.5,-110"/>
<text text-anchor="start" x="650.5" y="-94.8" font-family="sans-serif" font-size="14.00">Proprietary 8kun software</text>
<text text-anchor="start" x="707.5" y="-79.8" font-family="sans-serif" font-size="14.00">~2019–</text>
</g>
<!-- e8ch&#45;&gt;e8kun -->
<g id="edge25" class="edge">
<title>e8ch&#45;&gt;e8kun</title>
<path fill="none" stroke="black" d="M732.5,-145.83C732.5,-138.55 732.5,-129.98 732.5,-121.83"/>
<polygon fill="black" stroke="black" points="736,-121.93 732.5,-111.93 729,-121.93 736,-121.93"/>
</g>
<!-- TITLE -->
<g id="node16" class="node">
<title>TITLE</title>
<polygon fill="none" stroke="black" points="1273.5,-705 553.5,-705 553.5,-657 1273.5,-657 1273.5,-705"/>
<text text-anchor="start" x="820.5" y="-682.8" font-family="monospace" font-size="24.00">vichan</text>
<text text-anchor="start" x="906.5" y="-682.8" font-family="sans-serif" font-size="24.00"> Timeline</text>
<text text-anchor="start" x="849" y="-665.2" font-family="sans-serif" font-size="16.00">…as of 20230329</text>
</g>
<!-- TITLE&#45;&gt;tb -->
<g id="edge31" class="edge">
<title>TITLE&#45;&gt;tb</title>
<path fill="none" stroke="black" stroke-width="0" d="M790.59,-656.55C707.5,-640.7 602.19,-620.62 541.27,-608.99"/>
</g>
<!-- TITLE&#45;&gt;SIG -->
<g id="edge32" class="edge">
<title>TITLE&#45;&gt;SIG</title>
<path fill="none" stroke="black" stroke-width="0" d="M1033.3,-656.56C1158.37,-628.56 1336.5,-577.16 1336.5,-511.5 1336.5,-511.5 1336.5,-511.5 1336.5,-164 1336.5,-115.27 1310.95,-62.11 1296.38,-35.76"/>
</g>
</g>
</svg>
